<svg xmlns="http://www.w3.org/2000/svg" viewBox="0 0 2765.71 547.71"><defs><style>.cls-1{fill:#50505e;}.cls-2{fill:#19d3c5;}</style></defs><g id="Ebene_2" data-name="Ebene 2"><g id="Ebene_1-2" data-name="Ebene 1"><g id="Ebene_2-2" data-name="Ebene 2"><g id="Bildmarke"><path class="cls-1" d="M341.48,547.71c-107.18,0-194.38-87.19-194.38-194.38V194.38C147.1,87.2,234.3,0,341.48,0S535.86,87.2,535.86,194.38a43.66,43.66,0,0,1-87.31,0,107.07,107.07,0,0,0-214.14,0h0v159a107.07,107.07,0,0,0,214.14,0,43.66,43.66,0,0,1,87.31,0C535.86,460.52,448.66,547.71,341.48,547.71Z"/><path class="cls-2" d="M345.1,547.71a43.65,43.65,0,0,1-43.65-43.65V194.38a107.07,107.07,0,0,0-214.14,0h0V504.06a43.66,43.66,0,0,1-87.31,0V194.38C0,87.2,87.2,0,194.38,0S388.76,87.2,388.76,194.38V504.06a43.65,43.65,0,0,1-43.65,43.65Z"/></g><g id="Wordmarke"><path class="cls-1" d="M787,242.72V357c0,13.13-9.93,24-22.6,24.81a23.82,23.82,0,0,1-18-6.5,24.18,24.18,0,0,1-7.6-17.56V245c0-17.81-15-33-32.81-33.25-18.63.22-32.86,15.6-33,35.77V357c0,13.11-9.91,24-22.57,24.82h-1.58a24,24,0,0,1-16.47-6.53,24.27,24.27,0,0,1-7.61-17.58V239.86c1.2-19.67,10.13-38.53,25.16-53.11a80.88,80.88,0,0,1,54.45-23h3.39A81.37,81.37,0,0,1,787,242.72Z"/><path class="cls-1" d="M1193.72,165.46l-.52-.06-.67-.06h0l.67.06h0A2.31,2.31,0,0,1,1193.72,165.46Z"/><path class="cls-1" d="M1324.61,166.7a24.45,24.45,0,0,0-18.43-6.65c-13,.84-23.09,12-23.09,25.4V297.38c-.09,20.62-14.63,36.32-33.67,36.55a34.07,34.07,0,0,1-33.53-34V185.45c0-11.84-8.08-22.23-19.27-24.82l-.2-.06h-.07c-.31-.06-.61-.13-.9-.17l-.53-.09h-3.29a11.42,11.42,0,0,0-1.17,0h-1.75l-2.54.39a16.48,16.48,0,0,0-1.71.44c-10.55,3.06-17.9,13.12-17.9,24.48V300c0,18.2-15.36,33.77-33.42,34-19.15-.23-33.69-15.93-33.81-36.52v-112c0-13.42-10.14-24.56-23.06-25.38a24.48,24.48,0,0,0-18.45,6.63,24.74,24.74,0,0,0-7.8,18V305.22a79.35,79.35,0,0,0,7.8,29.55,86.77,86.77,0,0,0,18,24.73,82.75,82.75,0,0,0,55.61,23.5h3.45a83.56,83.56,0,0,0,56.34-24,83.59,83.59,0,0,0,56.35,24H1251a82.78,82.78,0,0,0,55.68-23.45,87.67,87.67,0,0,0,17.93-24.76,79.09,79.09,0,0,0,7.79-29.54V184.69A24.77,24.77,0,0,0,1324.61,166.7Z"/><path class="cls-1" d="M1194.16,160.21h.79a5.61,5.61,0,0,0-.82,0Zm-.92,5.17h0l-.67-.06h0l.67.06.52.06a4,4,0,0,0-.5-.06Z"/><path class="cls-1" d="M1190.13,165.3h0Z"/><path class="cls-1" d="M1188.89,160.11h-.18A.54.54,0,0,1,1188.89,160.11Z"/><path class="cls-1" d="M1190.13,165.3h0Z"/><path class="cls-1" d="M1190.18,160Z"/><path class="cls-1" d="M1193.21,165.38h0l-.67-.06h0Z"/><path class="cls-1" d="M1193.72,165.46l-.52-.06h0A2.31,2.31,0,0,1,1193.72,165.46Z"/><path class="cls-1" d="M1192.47,165.32Z"/><path class="cls-1" d="M1192.53,165.32Z"/><path class="cls-1" d="M1215.89,184.69v.76c0-11.84-8.08-22.23-19.27-24.82A24.73,24.73,0,0,1,1215.89,184.69Z"/><path class="cls-1" d="M1757.31,184.66s-.24,119.85-.7,121.68a83.57,83.57,0,0,1-80.67,77.82h-.08a10.25,10.25,0,0,1-1.56.12h-.48a11.33,11.33,0,0,1-1.84-.07l-.4,0a83.47,83.47,0,0,1-80.8-80.86,24.19,24.19,0,0,1-.13-2.55V184.66a24.66,24.66,0,1,1,49.31-1q0,.5,0,1v117.7a33.94,33.94,0,0,0,67.86-1.64,21.81,21.81,0,0,1,.23-2.91V184.66a24.66,24.66,0,1,1,49.31-1q0,.5,0,1Z"/><path class="cls-1" d="M977.36,286.29a23.44,23.44,0,0,0,16.86-7.12,24.06,24.06,0,0,0,6.92-17.07l-.31-21.31a83.13,83.13,0,0,0-80.92-80.36h-3c-40.25.94-74.89,31.48-80.61,71a82,82,0,0,0-.7,11.61v59.27a52.09,52.09,0,0,0,.23,5.7,83.44,83.44,0,0,0,80.42,75,12.78,12.78,0,0,0,1.75,0h.53a13.1,13.1,0,0,0,1.65-.13A90.69,90.69,0,0,0,981.6,356c.64-.66,1.25-1.31,1.95-2.06a23.57,23.57,0,0,0,3.65-5.26,24.66,24.66,0,0,0,1.69-17.48,24.08,24.08,0,0,0-20.44-17.67c-8.11-1-15.2,1.26-20.06,6.59-.54.6-1.57,1.75-2.09,2.26a42.3,42.3,0,0,1-28.16,11.8A34.33,34.33,0,0,1,884.31,300V286.29Zm-93.7-48.58c0-21.11,16.52-38.22,36.89-38.22s36.88,17.11,36.88,38.22Z"/><path class="cls-1" d="M2566,238.22a82.47,82.47,0,0,0-19.81-49L2546,189c-.28-.35-.58-.68-.88-1l-.13-.15c-1.69-1.89-3.43-3.67-5.34-5.46a83.08,83.08,0,0,0-54-22.21,6,6,0,0,0-.74-.08H2483a11,11,0,0,0-1.28.08h-.25A83.25,83.25,0,0,0,2401,237.87a4.28,4.28,0,0,1-.1.59l-.09,1c-.06,1.19-.09,2.44-.09,3.95v56.88a22.75,22.75,0,0,0,.53,4.86v.11A82.77,82.77,0,0,0,2421,354.32c.82.92,1.62,1.82,2.51,2.78,1.33,1.42,2.69,2.76,4,4,.41.39.83.76,1.25,1.14l3.87,3.29h0a83.71,83.71,0,0,0,48.92,17.82l.48.06a8.58,8.58,0,0,0,1.24.06h.82a7.78,7.78,0,0,0,1.18-.06h.33a83.33,83.33,0,0,0,80.64-77.79v-.18c0-.35.09-.71.12-1.07v-.44c.06-1.16.1-2.38.1-3.71V243.29A23.34,23.34,0,0,0,2566,238.22Zm-50.74,74.47c-.26.67-.58,1.41-1,2.26a31,31,0,0,1-1.63,3c-.24.44-.53.87-.81,1.31l-.78,1.08-.2.3c-.3.41-.62.83-1,1.29-.17.21-.34.43-.62.74s-.72.81-1.17,1.29a33.14,33.14,0,0,1-46.85,1.71c-.61-.56-1.2-1.15-1.76-1.76-.43-.44-.82-.87-1.21-1.32h0l-.5-.58-.11-.16c-.32-.37-.63-.77-.89-1.13l-.18-.25c-.26-.37-.53-.73-.8-1.15l-.07-.1c-.28-.4-.54-.8-.84-1.32a29.26,29.26,0,0,1-1.57-2.92c-.35-.72-.66-1.44-1-2.27a33.93,33.93,0,0,1-2.35-12.48c0-.77-.26-3.54-.32-4v-53a33.89,33.89,0,0,1,1.78-10.94c.26-.77.56-1.57.84-2.24l.18-.41c0-.13.1-.26.16-.38l.5-1.08c.06-.11.12-.22.17-.33l.21-.41a2.68,2.68,0,0,1,.18-.33l.26-.48c.06-.12.14-.25.2-.39l.73-1.19c.14-.21.27-.41.33-.52l1.47-2.09c.3-.41.61-.8.84-1.07l.88-1c.4-.47.75-.81,1.18-1.25a33.88,33.88,0,0,1,23.83-10.2,34.25,34.25,0,0,1,30.08,18.51c.45.87.83,1.66,1.15,2.45s.66,1.6.94,2.46a34.5,34.5,0,0,1,1.79,10.94,25.77,25.77,0,0,0,.24,3.51.92.92,0,0,0,.05.37v53a34,34,0,0,1-2.35,12.45Z"/><path class="cls-1" d="M1970.35,238.68c-2.59-42.79-38-77-80.86-78h-1.56l-4.38.08-.09.07a83.34,83.34,0,0,0-28.91,7.09V107.64a24.65,24.65,0,0,0-49.29,0s.44,192.26.44,192.84a83.12,83.12,0,0,0,80.6,83,11.25,11.25,0,0,0,1.53.11h1a11.42,11.42,0,0,0,1.55-.11,83.05,83.05,0,0,0,80.3-77.6v-.17a19.34,19.34,0,0,0,.25-2.94v-59A23.58,23.58,0,0,0,1970.35,238.68Zm-48.27,61.77a33.78,33.78,0,0,1-67.55,1.16c0-.39,0-6.71,0-7.86V238.89a33.75,33.75,0,0,1,67.22,4.83,24.33,24.33,0,0,0,.31,4Z"/><path class="cls-1" d="M2227.48,337.82h0a19.53,19.53,0,0,0-5.34-.34h-1c-1,0-2-.06-3-.16a35,35,0,0,1-31.71-34.95,16.92,16.92,0,0,0-.23-2.75V243.11a22.74,22.74,0,0,0-.56-5,82.15,82.15,0,0,0-19.85-49l-.78-.89-.48-.56c-1.72-1.91-3.48-3.69-5.36-5.43a83.44,83.44,0,0,0-54.29-22.17h-.26a9.44,9.44,0,0,0-1.3-.07h-.93a7.07,7.07,0,0,0-1.13.07h-.2a83.31,83.31,0,0,0-80.87,77.67l-.14,1v.48c-.08,1.52-.08,3-.08,3.92v57.62a22.77,22.77,0,0,0,.53,4.87v.09a82.37,82.37,0,0,0,19.89,49.07c.81.92,1.64,1.85,2.51,2.78,1.33,1.41,2.69,2.76,4.06,4,.46.43,1,.86,1.43,1.29l1.87,1.62a84.23,84.23,0,0,0,50.92,19.26l.51,0a10.46,10.46,0,0,0,1.12,0h1.67l.69-.07a83.34,83.34,0,0,0,57.46-25.3,81,81,0,0,0,56.54,25.29,9.73,9.73,0,0,0,1.43.1h1a14.13,14.13,0,0,0,1.46-.1l1.05-.05,1.87-.09,1.38-.15.32-.14A22.59,22.59,0,0,0,2239,377a23.42,23.42,0,0,0-11.47-39.16Zm-91-23.95c-.31.79-.64,1.54-1,2.36a31.08,31.08,0,0,1-1.65,3l-.09.14c-.25.43-.52.86-.83,1.3l-.09.13c-.29.44-.6.89-1,1.43s-.61.82-.92,1.2l-.69.83c-.4.45-.82.91-1.3,1.4a35.23,35.23,0,0,1-49.8,1.56c-.56-.53-1.11-1.08-1.64-1.65-.41-.41-.81-.84-1.13-1.22L2076,324c-.12-.13-.25-.27-.42-.49a16.49,16.49,0,0,1-1-1.33c-.31-.47-.68-.92-1-1.45s-.61-.91-.93-1.46a33.34,33.34,0,0,1-1.67-3.12c-.33-.69-.66-1.4-1-2.3-1.65-4.17-2.12-6.37-2.82-12.27,0-.79.08-5.9,0-6.37V243.13a35.41,35.41,0,0,1,1.89-11.5c.26-.78.56-1.56.91-2.41l.47-1.05c.06-.14.13-.29.16-.39l.86-1.69c.12-.2.22-.39.34-.6l.69-1.17c.15-.23.31-.48.45-.73l1-1.35c.13-.19.26-.37.42-.58l.32-.44c.29-.38.59-.74.83-1l1.21-1.41c.29-.31.59-.59,1-1a35.37,35.37,0,0,1,57,8.68c.5,1,.89,1.8,1.24,2.61s.67,1.66,1,2.57a35.86,35.86,0,0,1,1.87,11.48,24.82,24.82,0,0,0,.28,3.65v54a35.48,35.48,0,0,1-2.59,13.07Z"/><path class="cls-1" d="M1541.81,323.22c-9.09,35.7-41.82,60.62-79.58,60.62-45.21,0-82-35.85-82-79.91v-64c0-44.06,36.78-79.91,82-79.91,37.84,0,70.58,25,79.62,60.76a23.43,23.43,0,0,1-45.44,11.47c-3.77-14.94-17.82-25.38-34.18-25.38-19.38,0-35.14,14.84-35.14,33.06v64c0,18.22,15.76,33.06,35.14,33.06,16.33,0,30.37-10.41,34.17-25.33a23.43,23.43,0,0,1,45.41,11.56Z"/><path class="cls-1" d="M2376.51,361.86a23.38,23.38,0,0,1-23.37,22.27H2352a123.53,123.53,0,0,1-15-1.52c-38.14-7.43-65.83-40.36-65.83-78.31V207a23.41,23.41,0,0,1,0-46.82V121.41a23.41,23.41,0,1,1,46.82,0v38.76h24.45a23.41,23.41,0,0,1,0,46.82H2318v97.28c0,15.59,11.76,29.2,27.95,32.35.93.18,5,.54,8.31.71A23.45,23.45,0,0,1,2376.51,361.86Z"/><path class="cls-1" d="M2757.15,224.36a23.26,23.26,0,0,1-32.66-3.43A35.39,35.39,0,0,0,2696.78,208c-19.21,0-34.83,14.71-34.83,32.77V360.2a23.22,23.22,0,0,1-46.43,0v-177a23.21,23.21,0,0,1,42.91-12.2,82.51,82.51,0,0,1,38.35-9.39,81.65,81.65,0,0,1,63.79,30.14A23.25,23.25,0,0,1,2757.15,224.36Z"/></g></g></g></g></svg>